<svg width="200" height="200" viewBox="0 0 200 200" fill="none" xmlns="http://www.w3.org/2000/svg">
<rect y="88" width="200" height="24" fill="#002F6C"/>
<rect x="88" y="200" width="200" height="24" transform="rotate(-90 88 200)" fill="#002F6C"/>
<path d="M100.183 27.3464C99.1146 27.3464 98.2499 27.0382 97.5886 26.422C96.9528 25.78 96.6349 24.9327 96.6349 23.8799V5.73888H91.2561C90.1371 5.73888 89.2979 5.50779 88.7384 5.0456C88.2043 4.55773 87.9373 3.82592 87.9373 2.85018C87.9373 1.87445 88.2043 1.15548 88.7384 0.693288C89.2979 0.231096 90.1371 0 91.2561 0H109.109C110.228 0 111.055 0.231096 111.589 0.693288C112.148 1.15548 112.428 1.87445 112.428 2.85018C112.428 3.82592 112.148 4.55773 111.589 5.0456C111.055 5.50779 110.228 5.73888 109.109 5.73888H103.73V23.8799C103.73 24.9327 103.4 25.78 102.739 26.422C102.103 27.0382 101.251 27.3464 100.183 27.3464Z" fill="#002F6C"/>
<path d="M62.0065 37.8384C61.0815 38.3736 60.1789 38.54 59.2988 38.3376C58.4279 38.1002 57.7298 37.5257 57.2045 36.614L48.1527 20.9034L43.4945 23.5984C42.5254 24.159 41.6833 24.3794 40.9681 24.2594C40.2622 24.1045 39.6658 23.6045 39.1789 22.7595C38.692 21.9145 38.5646 21.1581 38.7965 20.4902C39.0504 19.8096 39.6619 19.189 40.631 18.6283L56.0923 9.68326C57.0613 9.1226 57.8925 8.90861 58.5856 9.04129C59.3008 9.16123 59.9018 9.64371 60.3886 10.4887C60.8755 11.3337 60.9984 12.1077 60.7572 12.8105C60.5253 13.4784 59.9249 14.0926 58.9558 14.6533L54.2976 17.3483L63.3493 33.0589C63.8746 33.9706 64.0111 34.8701 63.7588 35.7573C63.5156 36.6096 62.9316 37.3033 62.0065 37.8384Z" fill="#002F6C"/>
<path d="M172.584 100.313C172.573 99.2427 172.871 98.3731 173.48 97.7041C174.113 97.0604 174.956 96.733 176.006 96.722L194.109 96.5331L194.053 91.1434C194.041 90.0221 194.263 89.1788 194.718 88.6133C195.2 88.0731 195.927 87.7979 196.901 87.7877C197.874 87.7776 198.595 88.0377 199.061 88.568C199.528 89.1238 199.768 89.9623 199.779 91.0836L199.965 108.973C199.977 110.094 199.755 110.925 199.299 111.465C198.844 112.03 198.13 112.318 197.156 112.328C196.182 112.338 195.449 112.065 194.956 111.51C194.49 110.98 194.25 110.154 194.239 109.033L194.183 103.643L176.08 103.832C175.03 103.843 174.181 103.52 173.533 102.864C172.912 102.234 172.595 101.383 172.584 100.313Z" fill="#002F6C"/>
<path d="M163.272 64.0199C162.738 63.093 162.572 62.1885 162.774 61.3066C163.011 60.4338 163.585 59.7343 164.494 59.2079L180.173 50.1374L177.483 45.4695C176.924 44.4984 176.704 43.6546 176.823 42.9379C176.978 42.2305 177.477 41.6329 178.32 41.145C179.164 40.6571 179.918 40.5294 180.585 40.7618C181.264 41.0162 181.883 41.629 182.443 42.6001L191.369 58.0934C191.929 59.0645 192.143 59.8973 192.01 60.5919C191.89 61.3085 191.409 61.9108 190.566 62.3987C189.722 62.8865 188.95 63.0097 188.249 62.768C187.582 62.5357 186.969 61.9339 186.41 60.9628L183.72 56.295L168.042 65.3655C167.132 65.8919 166.235 66.0287 165.349 65.7758C164.499 65.5322 163.807 64.9469 163.272 64.0199Z" fill="#002F6C"/>
<path d="M36.8996 64.0199C36.3655 64.9469 35.6669 65.5432 34.8037 65.8089C33.931 66.0397 33.0397 65.8919 32.1299 65.3655L16.4517 56.295L13.7623 60.9628C13.2028 61.9339 12.5835 62.5467 11.9043 62.8012C11.2156 63.0207 10.4497 62.8865 9.60639 62.3987C8.76312 61.9108 8.27528 61.3196 8.14287 60.625C8.02318 59.9084 8.24309 59.0645 8.80259 58.0934L17.7292 42.6001C18.2887 41.629 18.9017 41.0273 19.5681 40.7949C20.2473 40.5404 21.0086 40.6571 21.8518 41.145C22.6951 41.6329 23.1877 42.2415 23.3296 42.971C23.462 43.6656 23.2484 44.4984 22.6889 45.4695L19.9995 50.1374L35.6776 59.2079C36.5875 59.7343 37.1545 60.4449 37.3786 61.3397C37.5933 62.1996 37.4336 63.093 36.8996 64.0199Z" fill="#002F6C"/>
<path d="M27.2898 100.029C27.2898 101.099 26.9823 101.966 26.3674 102.628C25.7268 103.265 24.8812 103.584 23.8306 103.584H5.72702V108.974C5.72702 110.095 5.4964 110.936 5.03517 111.497C4.54831 112.032 3.81801 112.3 2.84429 112.3C1.87057 112.3 1.15309 112.032 0.691855 111.497C0.230618 110.936 0 110.095 0 108.974V91.0838C0 89.9625 0.230618 89.1342 0.691855 88.5991C1.15309 88.0384 1.87057 87.7581 2.84429 87.7581C3.81801 87.7581 4.54831 88.0384 5.03517 88.5991C5.4964 89.1342 5.72702 89.9625 5.72702 91.0838V96.4738H23.8306C24.8812 96.4738 25.7268 96.8051 26.3674 97.4677C26.9823 98.1048 27.2898 98.9585 27.2898 100.029Z" fill="#002F6C"/>
<path d="M37.92 137.265C38.4541 138.192 38.6201 139.096 38.4182 139.978C38.1813 140.851 37.6079 141.551 36.6981 142.077L21.02 151.147L23.7094 155.815C24.2689 156.786 24.4888 157.63 24.3691 158.347C24.2145 159.054 23.7156 159.652 22.8723 160.14C22.029 160.628 21.2741 160.755 20.6077 160.523C19.9285 160.269 19.3091 159.656 18.7496 158.685L9.82305 143.191C9.26355 142.22 9.05 141.388 9.18241 140.693C9.3021 139.976 9.78358 139.374 10.6268 138.886C11.4701 138.398 12.2424 138.275 12.9438 138.517C13.6103 138.749 14.2233 139.351 14.7828 140.322L17.4722 144.99L33.1503 135.919C34.0602 135.393 34.9578 135.256 35.8432 135.509C36.6937 135.753 37.386 136.338 37.92 137.265Z" fill="#002F6C"/>
<path d="M63.027 163.451C63.952 163.986 64.5471 164.686 64.8123 165.551C65.0426 166.425 64.8951 167.318 64.3698 168.23L55.318 183.941L59.9762 186.636C60.9453 187.196 61.5568 187.817 61.8107 188.498C62.0298 189.188 61.8959 189.955 61.4091 190.8C60.9222 191.645 60.3322 192.134 59.6391 192.267C58.9239 192.387 58.0818 192.166 57.1127 191.606L41.6514 182.661C40.6824 182.1 40.0819 181.486 39.85 180.818C39.596 180.137 39.7125 179.375 40.1994 178.53C40.6862 177.685 41.2936 177.191 42.0216 177.049C42.7148 176.916 43.5459 177.13 44.5149 177.691L49.1732 180.386L58.2249 164.675C58.7502 163.763 59.4593 163.195 60.3523 162.971C61.2104 162.755 62.102 162.915 63.027 163.451Z" fill="#002F6C"/>
<path d="M100.004 172.654C101.073 172.654 101.937 172.962 102.598 173.578C103.234 174.22 103.552 175.067 103.552 176.12V194.261H108.931C110.05 194.261 110.889 194.492 111.449 194.954C111.983 195.442 112.25 196.174 112.25 197.15C112.25 198.126 111.983 198.845 111.449 199.307C110.889 199.769 110.05 200 108.931 200H91.0778C89.9588 200 89.1323 199.769 88.5982 199.307C88.0387 198.845 87.759 198.126 87.759 197.15C87.759 196.174 88.0387 195.442 88.5982 194.954C89.1323 194.492 89.9588 194.261 91.0778 194.261H96.4567V176.12C96.4567 175.067 96.7873 174.22 97.4485 173.578C98.0843 172.962 98.9363 172.654 100.004 172.654Z" fill="#002F6C"/>
<path d="M135.1 163.451C136.025 162.915 136.928 162.749 137.808 162.951C138.679 163.189 139.377 163.763 139.902 164.675L148.954 180.386L153.612 177.691C154.581 177.13 155.423 176.91 156.139 177.03C156.844 177.184 157.441 177.684 157.928 178.529C158.415 179.374 158.542 180.131 158.31 180.799C158.056 181.479 157.445 182.1 156.476 182.661L141.014 191.606C140.045 192.166 139.214 192.38 138.521 192.248C137.806 192.128 137.205 191.645 136.718 190.8C136.231 189.955 136.108 189.181 136.349 188.478C136.581 187.811 137.182 187.196 138.151 186.636L142.809 183.941L133.757 168.23C133.232 167.318 133.096 166.419 133.348 165.532C133.591 164.679 134.175 163.986 135.1 163.451Z" fill="#002F6C"/>
<path d="M163.272 136.242C163.807 135.316 164.505 134.719 165.368 134.453C166.241 134.223 167.132 134.37 168.042 134.897L183.72 143.967L186.41 139.3C186.969 138.328 187.589 137.716 188.268 137.461C188.956 137.242 189.722 137.376 190.566 137.864C191.409 138.352 191.897 138.943 192.029 139.637C192.149 140.354 191.929 141.198 191.369 142.169L182.443 157.662C181.883 158.633 181.27 159.235 180.604 159.468C179.925 159.722 179.163 159.605 178.32 159.117C177.477 158.63 176.984 158.021 176.842 157.291C176.71 156.597 176.924 155.764 177.483 154.793L180.173 150.125L164.494 141.054C163.585 140.528 163.018 139.818 162.793 138.923C162.579 138.063 162.738 137.169 163.272 136.242Z" fill="#002F6C"/>
<path d="M136.121 36.8159C135.196 36.2807 134.6 35.5806 134.335 34.7156C134.105 33.8411 134.252 32.948 134.778 32.0363L143.83 16.3257L139.171 13.6307C138.202 13.07 137.591 12.4494 137.337 11.7688C137.118 11.0787 137.252 10.3111 137.738 9.46613C138.225 8.62112 138.815 8.13227 139.508 7.99959C140.224 7.87965 141.066 8.10001 142.035 8.66067L157.496 17.6057C158.465 18.1664 159.066 18.7807 159.298 19.4485C159.552 20.1291 159.435 20.8919 158.948 21.7369C158.461 22.582 157.854 23.0756 157.126 23.2177C156.433 23.3504 155.602 23.1364 154.633 22.5758L149.974 19.8808L140.923 35.5914C140.397 36.5031 139.688 37.0713 138.795 37.2959C137.937 37.511 137.046 37.351 136.121 36.8159Z" fill="#002F6C"/>
<ellipse cx="99.4942" cy="99.5402" rx="68.8806" ry="69.0233" fill="#002F6C" fill-opacity="0.98"/>
<g filter="url(#filter0_di)">
<ellipse cx="90.2948" cy="82.1412" rx="19.8835" ry="19.9247" fill="white"/>
</g>
<g filter="url(#filter1_di)">
<ellipse cx="127.557" cy="102.097" rx="14.2863" ry="14.3159" fill="white"/>
</g>
<g filter="url(#filter2_di)">
<ellipse cx="90.2591" cy="121.986" rx="10.6637" ry="10.6858" fill="white"/>
</g>
<defs>
<filter id="filter0_di" x="66.4113" y="62.2164" width="47.7671" height="79.8494" filterUnits="userSpaceOnUse" color-interpolation-filters="sRGB">
<feFlood flood-opacity="0" result="BackgroundImageFix"/>
<feColorMatrix in="SourceAlpha" type="matrix" values="0 0 0 0 0 0 0 0 0 0 0 0 0 0 0 0 0 0 127 0"/>
<feOffset dy="4"/>
<feGaussianBlur stdDeviation="2"/>
<feColorMatrix type="matrix" values="0 0 0 0 0 0 0 0 0 0 0 0 0 0 0 0 0 0 0.25 0"/>
<feBlend mode="normal" in2="BackgroundImageFix" result="effect1_dropShadow"/>
<feBlend mode="normal" in="SourceGraphic" in2="effect1_dropShadow" result="shape"/>
<feColorMatrix in="SourceAlpha" type="matrix" values="0 0 0 0 0 0 0 0 0 0 0 0 0 0 0 0 0 0 127 0" result="hardAlpha"/>
<feOffset dy="40"/>
<feGaussianBlur stdDeviation="20"/>
<feComposite in2="hardAlpha" operator="arithmetic" k2="-1" k3="1"/>
<feColorMatrix type="matrix" values="0 0 0 0 0.423529 0 0 0 0 0.027451 0 0 0 0 0 0 0 0 0.25 0"/>
<feBlend mode="normal" in2="shape" result="effect2_innerShadow"/>
</filter>
<filter id="filter1_di" x="109.27" y="87.7806" width="36.5727" height="68.6319" filterUnits="userSpaceOnUse" color-interpolation-filters="sRGB">
<feFlood flood-opacity="0" result="BackgroundImageFix"/>
<feColorMatrix in="SourceAlpha" type="matrix" values="0 0 0 0 0 0 0 0 0 0 0 0 0 0 0 0 0 0 127 0"/>
<feOffset dy="4"/>
<feGaussianBlur stdDeviation="2"/>
<feColorMatrix type="matrix" values="0 0 0 0 0 0 0 0 0 0 0 0 0 0 0 0 0 0 0.25 0"/>
<feBlend mode="normal" in2="BackgroundImageFix" result="effect1_dropShadow"/>
<feBlend mode="normal" in="SourceGraphic" in2="effect1_dropShadow" result="shape"/>
<feColorMatrix in="SourceAlpha" type="matrix" values="0 0 0 0 0 0 0 0 0 0 0 0 0 0 0 0 0 0 127 0" result="hardAlpha"/>
<feOffset dy="40"/>
<feGaussianBlur stdDeviation="20"/>
<feComposite in2="hardAlpha" operator="arithmetic" k2="-1" k3="1"/>
<feColorMatrix type="matrix" values="0 0 0 0 0.423529 0 0 0 0 0.027451 0 0 0 0 0 0 0 0 0.25 0"/>
<feBlend mode="normal" in2="shape" result="effect2_innerShadow"/>
</filter>
<filter id="filter2_di" x="75.5953" y="111.3" width="29.3275" height="61.3717" filterUnits="userSpaceOnUse" color-interpolation-filters="sRGB">
<feFlood flood-opacity="0" result="BackgroundImageFix"/>
<feColorMatrix in="SourceAlpha" type="matrix" values="0 0 0 0 0 0 0 0 0 0 0 0 0 0 0 0 0 0 127 0"/>
<feOffset dy="4"/>
<feGaussianBlur stdDeviation="2"/>
<feColorMatrix type="matrix" values="0 0 0 0 0 0 0 0 0 0 0 0 0 0 0 0 0 0 0.25 0"/>
<feBlend mode="normal" in2="BackgroundImageFix" result="effect1_dropShadow"/>
<feBlend mode="normal" in="SourceGraphic" in2="effect1_dropShadow" result="shape"/>
<feColorMatrix in="SourceAlpha" type="matrix" values="0 0 0 0 0 0 0 0 0 0 0 0 0 0 0 0 0 0 127 0" result="hardAlpha"/>
<feOffset dy="40"/>
<feGaussianBlur stdDeviation="20"/>
<feComposite in2="hardAlpha" operator="arithmetic" k2="-1" k3="1"/>
<feColorMatrix type="matrix" values="0 0 0 0 0.423529 0 0 0 0 0.027451 0 0 0 0 0 0 0 0 0.25 0"/>
<feBlend mode="normal" in2="shape" result="effect2_innerShadow"/>
</filter>
</defs>
</svg>
